M48
; DRILL file {KiCad 9.0.2} date 2026-04-27T20:09:45-0400
; FORMAT={-:-/ absolute / inch / decimal}
; #@! TF.CreationDate,2026-04-27T20:09:45-04:00
; #@! TF.GenerationSoftware,Kicad,Pcbnew,9.0.2
; #@! TF.FileFunction,Plated,1,2,PTH
FMAT,2
INCH
; #@! TA.AperFunction,Plated,PTH,ViaDrill
T1C0.0118
; #@! TA.AperFunction,Plated,PTH,ComponentDrill
T2C0.0394
; #@! TA.AperFunction,Plated,PTH,ComponentDrill
T3C0.0472
; #@! TA.AperFunction,Plated,PTH,ComponentDrill
T4C0.0984
%
G90
G05
T1
X2.0098Y-2.7909
X2.2192Y-2.6992
X2.3445Y-3.7349
X2.3484Y-4.5311
X2.4231Y-3.1341
X2.4253Y-3.874
X2.4253Y-3.2728
X2.485Y-4.5483
X2.6225Y-4.2058
X2.6269Y-2.6973
X2.6912Y-3.9039
X2.7972Y-3.098
X2.8406Y-4.2122
X2.8648Y-3.4752
X2.8649Y-3.3283
X2.8659Y-3.3773
X2.9626Y-4.2201
X3.0217Y-4.2122
X3.5259Y-4.5587
X3.5783Y-4.5587
X3.628Y-4.5574
X3.6767Y-4.5587
X3.7259Y-4.5705
X4.081Y-3.1233
X4.1359Y-2.6433
X4.1634Y-2.6433
X4.1713Y-4.1335
X4.1909Y-2.4406
X4.2145Y-3.6846
X4.2145Y-3.7201
X4.2146Y-3.6492
X4.25Y-3.6492
X4.25Y-3.6846
X4.25Y-3.7201
X4.2854Y-3.6492
X4.2854Y-3.6846
X4.2854Y-3.7201
X4.2939Y-4.3813
X4.3209Y-3.6846
X4.3209Y-3.7201
X4.3852Y-2.8809
X4.4311Y-3.5272
X4.4311Y-3.5665
X4.4643Y-3.5461
X4.498Y-3.5272
X4.498Y-3.5665
X4.5708Y-2.7063
X4.6752Y-4.2883
T2
X3.2754Y-2.55
X3.2754Y-2.65
X3.2754Y-2.75
X3.2754Y-2.85
X3.2754Y-2.95
X3.2754Y-3.05
X3.2754Y-3.15
X3.2754Y-3.25
X3.2754Y-3.35
X3.2754Y-3.45
X3.2754Y-3.55
X3.2754Y-3.65
X3.2754Y-3.75
X3.2754Y-3.85
X3.2754Y-3.95
X3.2754Y-4.05
X3.2754Y-4.15
X3.2754Y-4.25
X3.2754Y-4.35
X3.2754Y-4.45
X3.9754Y-2.55
X3.9754Y-2.65
X3.9754Y-2.75
X3.9754Y-2.85
X3.9754Y-2.95
X3.9754Y-3.05
X3.9754Y-3.15
X3.9754Y-3.25
X3.9754Y-3.35
X3.9754Y-3.45
X3.9754Y-3.55
X3.9754Y-3.65
X3.9754Y-3.75
X3.9754Y-3.85
X3.9754Y-3.95
X3.9754Y-4.05
X3.9754Y-4.15
X3.9754Y-4.25
X3.9754Y-4.35
X3.9754Y-4.45
T3
X2.2638Y-3.7378
X2.2638Y-3.8756
X2.2638Y-4.0134
X2.2638Y-4.1512
X2.2639Y-3.1338
X2.2639Y-3.2716
X2.2639Y-3.4093
X2.2639Y-3.5471
T4
X4.7079Y-3.1928
X4.7079Y-3.4999
M30
