%TF.GenerationSoftware,KiCad,Pcbnew,9.0.2*%
%TF.CreationDate,2026-04-27T20:09:48-04:00*%
%TF.ProjectId,Final_GSPCB,46696e61-6c5f-4475-9350-43422e6b6963,rev?*%
%TF.SameCoordinates,Original*%
%TF.FileFunction,Paste,Top*%
%TF.FilePolarity,Positive*%
%FSLAX46Y46*%
G04 Gerber Fmt 4.6, Leading zero omitted, Abs format (unit mm)*
G04 Created by KiCad (PCBNEW 9.0.2) date 2026-04-27 20:09:48*
%MOMM*%
%LPD*%
G01*
G04 APERTURE LIST*
G04 Aperture macros list*
%AMRoundRect*
0 Rectangle with rounded corners*
0 $1 Rounding radius*
0 $2 $3 $4 $5 $6 $7 $8 $9 X,Y pos of 4 corners*
0 Add a 4 corners polygon primitive as box body*
4,1,4,$2,$3,$4,$5,$6,$7,$8,$9,$2,$3,0*
0 Add four circle primitives for the rounded corners*
1,1,$1+$1,$2,$3*
1,1,$1+$1,$4,$5*
1,1,$1+$1,$6,$7*
1,1,$1+$1,$8,$9*
0 Add four rect primitives between the rounded corners*
20,1,$1+$1,$2,$3,$4,$5,0*
20,1,$1+$1,$4,$5,$6,$7,0*
20,1,$1+$1,$6,$7,$8,$9,0*
20,1,$1+$1,$8,$9,$2,$3,0*%
G04 Aperture macros list end*
%ADD10C,0.010000*%
%ADD11RoundRect,0.150000X-0.150000X-0.700000X0.150000X-0.700000X0.150000X0.700000X-0.150000X0.700000X0*%
%ADD12RoundRect,0.250000X-0.250000X-1.150000X0.250000X-1.150000X0.250000X1.150000X-0.250000X1.150000X0*%
%ADD13RoundRect,0.237500X0.250000X0.237500X-0.250000X0.237500X-0.250000X-0.237500X0.250000X-0.237500X0*%
%ADD14RoundRect,0.237500X-0.250000X-0.237500X0.250000X-0.237500X0.250000X0.237500X-0.250000X0.237500X0*%
%ADD15RoundRect,0.250000X0.475000X-0.337500X0.475000X0.337500X-0.475000X0.337500X-0.475000X-0.337500X0*%
%ADD16RoundRect,0.237500X0.300000X0.237500X-0.300000X0.237500X-0.300000X-0.237500X0.300000X-0.237500X0*%
%ADD17RoundRect,0.155000X0.155000X-0.212500X0.155000X0.212500X-0.155000X0.212500X-0.155000X-0.212500X0*%
%ADD18R,0.800000X0.800000*%
%ADD19RoundRect,0.155000X-0.155000X0.212500X-0.155000X-0.212500X0.155000X-0.212500X0.155000X0.212500X0*%
%ADD20RoundRect,0.237500X0.237500X-0.300000X0.237500X0.300000X-0.237500X0.300000X-0.237500X-0.300000X0*%
%ADD21RoundRect,0.155000X-0.212500X-0.155000X0.212500X-0.155000X0.212500X0.155000X-0.212500X0.155000X0*%
%ADD22RoundRect,0.155000X0.212500X0.155000X-0.212500X0.155000X-0.212500X-0.155000X0.212500X-0.155000X0*%
%ADD23RoundRect,0.150000X0.700000X-0.150000X0.700000X0.150000X-0.700000X0.150000X-0.700000X-0.150000X0*%
%ADD24RoundRect,0.250000X1.150000X-0.250000X1.150000X0.250000X-1.150000X0.250000X-1.150000X-0.250000X0*%
%ADD25RoundRect,0.100000X0.028284X-0.035355X0.035355X-0.028284X-0.028284X0.035355X-0.035355X0.028284X0*%
%ADD26RoundRect,0.150000X0.150000X0.700000X-0.150000X0.700000X-0.150000X-0.700000X0.150000X-0.700000X0*%
%ADD27RoundRect,0.250000X0.250000X1.150000X-0.250000X1.150000X-0.250000X-1.150000X0.250000X-1.150000X0*%
%ADD28R,0.980000X3.700000*%
%ADD29R,1.397000X0.254000*%
%ADD30R,0.254000X0.609600*%
%ADD31R,0.609600X0.254000*%
%ADD32RoundRect,0.032500X0.097500X-0.417500X0.097500X0.417500X-0.097500X0.417500X-0.097500X-0.417500X0*%
%ADD33RoundRect,0.032500X0.417500X-0.097500X0.417500X0.097500X-0.417500X0.097500X-0.417500X-0.097500X0*%
%ADD34RoundRect,0.250000X-0.337500X-0.475000X0.337500X-0.475000X0.337500X0.475000X-0.337500X0.475000X0*%
%ADD35RoundRect,0.155000X0.040659X0.259862X-0.259862X-0.040659X-0.040659X-0.259862X0.259862X0.040659X0*%
%ADD36R,0.406400X0.711200*%
%ADD37R,2.489200X1.752600*%
%ADD38RoundRect,0.150000X-0.700000X0.150000X-0.700000X-0.150000X0.700000X-0.150000X0.700000X0.150000X0*%
%ADD39RoundRect,0.250000X-1.150000X0.250000X-1.150000X-0.250000X1.150000X-0.250000X1.150000X0.250000X0*%
%ADD40RoundRect,0.237500X-0.300000X-0.237500X0.300000X-0.237500X0.300000X0.237500X-0.300000X0.237500X0*%
G04 APERTURE END LIST*
D10*
%TO.C,D3*%
X103750000Y-60140001D02*
X103750000Y-62039999D01*
X102550000Y-62040000D01*
X102550000Y-60140000D01*
X103750000Y-60140001D01*
G36*
X103750000Y-60140001D02*
G01*
X103750000Y-62039999D01*
X102550000Y-62040000D01*
X102550000Y-60140000D01*
X103750000Y-60140001D01*
G37*
X99350000Y-62040000D02*
X98150000Y-62039999D01*
X98150000Y-60140001D01*
X99350000Y-60140000D01*
X99350000Y-62040000D01*
G36*
X99350000Y-62040000D02*
G01*
X98150000Y-62039999D01*
X98150000Y-60140001D01*
X99350000Y-60140000D01*
X99350000Y-62040000D01*
G37*
%TO.C,D4*%
X109487500Y-85440000D02*
X108287500Y-85440000D01*
X108287500Y-83540000D01*
X109487500Y-83540000D01*
X109487500Y-85440000D01*
G36*
X109487500Y-85440000D02*
G01*
X108287500Y-85440000D01*
X108287500Y-83540000D01*
X109487500Y-83540000D01*
X109487500Y-85440000D01*
G37*
X113887500Y-85440000D02*
X112687500Y-85440000D01*
X112687500Y-83540000D01*
X113887500Y-83540000D01*
X113887500Y-85440000D01*
G36*
X113887500Y-85440000D02*
G01*
X112687500Y-85440000D01*
X112687500Y-83540000D01*
X113887500Y-83540000D01*
X113887500Y-85440000D01*
G37*
%TO.C,D3*%
X109497000Y-82213400D02*
X108297000Y-82213400D01*
X108297000Y-80313400D01*
X109497000Y-80313400D01*
X109497000Y-82213400D01*
G36*
X109497000Y-82213400D02*
G01*
X108297000Y-82213400D01*
X108297000Y-80313400D01*
X109497000Y-80313400D01*
X109497000Y-82213400D01*
G37*
X113897000Y-82213400D02*
X112697000Y-82213400D01*
X112697000Y-80313400D01*
X113897000Y-80313400D01*
X113897000Y-82213400D01*
G36*
X113897000Y-82213400D02*
G01*
X112697000Y-82213400D01*
X112697000Y-80313400D01*
X113897000Y-80313400D01*
X113897000Y-82213400D01*
G37*
%TO.C,U14*%
X71005400Y-103468800D02*
X69705400Y-103468800D01*
X69705400Y-101848800D01*
X71005400Y-101848800D01*
X71005400Y-103468800D01*
G36*
X71005400Y-103468800D02*
G01*
X69705400Y-103468800D01*
X69705400Y-101848800D01*
X71005400Y-101848800D01*
X71005400Y-103468800D01*
G37*
%TD*%
D11*
%TO.C,REF\u002A\u002A*%
X56327200Y-66858600D03*
X57577200Y-66858600D03*
X58827200Y-66858600D03*
X60077200Y-66858600D03*
D12*
X54477200Y-63508600D03*
X61927200Y-63508600D03*
%TD*%
D13*
%TO.C,R11*%
X117185926Y-67020900D03*
X115360926Y-67020900D03*
%TD*%
D14*
%TO.C,R5*%
X115027538Y-75624400D03*
X116852538Y-75624400D03*
%TD*%
D15*
%TO.C,C38*%
X120100000Y-71977500D03*
X120100000Y-69902500D03*
%TD*%
D14*
%TO.C,*%
X118710926Y-67020900D03*
%TD*%
D16*
%TO.C,*%
X115410926Y-65520900D03*
%TD*%
D17*
%TO.C,R15*%
X53896200Y-75015350D03*
X53896200Y-73880350D03*
%TD*%
D18*
%TO.C,D11*%
X57122000Y-70875000D03*
X57122000Y-72475000D03*
%TD*%
D16*
%TO.C,*%
X72967900Y-106158800D03*
%TD*%
D18*
%TO.C,D11*%
X54998800Y-115009400D03*
X54998800Y-113409400D03*
%TD*%
D13*
%TO.C,*%
X115360926Y-67020900D03*
%TD*%
D19*
%TO.C,R15*%
X53297000Y-110835300D03*
X53297000Y-111970300D03*
%TD*%
D16*
%TO.C,C40*%
X117135926Y-65520900D03*
X115410926Y-65520900D03*
%TD*%
D20*
%TO.C,C37*%
X121900000Y-71815000D03*
X121900000Y-70090000D03*
%TD*%
D19*
%TO.C,R15*%
X58199200Y-110894450D03*
X58199200Y-112029450D03*
%TD*%
D14*
%TO.C,R10*%
X110615038Y-74124400D03*
X112440038Y-74124400D03*
%TD*%
D17*
%TO.C,R15*%
X57172800Y-75049100D03*
X57172800Y-73914100D03*
%TD*%
D21*
%TO.C,R4*%
X113982500Y-86690000D03*
X115117500Y-86690000D03*
%TD*%
D13*
%TO.C,*%
X69442900Y-99158800D03*
%TD*%
D15*
%TO.C,C41*%
X107283926Y-67311900D03*
X107283926Y-65236900D03*
%TD*%
D20*
%TO.C,C36*%
X111883926Y-71786900D03*
X111883926Y-70061900D03*
%TD*%
D22*
%TO.C,C15*%
X112717500Y-86690000D03*
X111582500Y-86690000D03*
%TD*%
D23*
%TO.C,REF\u002A\u002A*%
X71012800Y-77774800D03*
X71012800Y-76524800D03*
X71012800Y-75274800D03*
X71012800Y-74024800D03*
D24*
X67662800Y-79624800D03*
X67662800Y-72174800D03*
%TD*%
D15*
%TO.C,C44*%
X109333926Y-67311900D03*
X109333926Y-65236900D03*
%TD*%
%TO.C,C46*%
X113383926Y-67311900D03*
X113383926Y-65236900D03*
%TD*%
D19*
%TO.C,R15*%
X56573600Y-110869050D03*
X56573600Y-112004050D03*
%TD*%
D25*
%TO.C,REF\u002A\u002A*%
X104988370Y-80679200D03*
X105250000Y-80417570D03*
%TD*%
D13*
%TO.C,*%
X71267900Y-99158800D03*
%TD*%
D17*
%TO.C,R15*%
X52270600Y-74989950D03*
X52270600Y-73854950D03*
%TD*%
D14*
%TO.C,*%
X120535926Y-67020900D03*
%TD*%
D16*
%TO.C,*%
X71242900Y-106158800D03*
%TD*%
D18*
%TO.C,D11*%
X116950000Y-96690000D03*
X115350000Y-96690000D03*
%TD*%
D26*
%TO.C,REF\u002A\u002A*%
X73120200Y-117845200D03*
X71870200Y-117845200D03*
X70620200Y-117845200D03*
X69370200Y-117845200D03*
X68120200Y-117845200D03*
X66870200Y-117845200D03*
X65620200Y-117845200D03*
X64370200Y-117845200D03*
X63120200Y-117845200D03*
D27*
X74970200Y-121195200D03*
X61270200Y-121195200D03*
%TD*%
D28*
%TO.C,L11*%
X109089326Y-70962000D03*
X106719326Y-70962000D03*
%TD*%
D16*
%TO.C,C35*%
X112390038Y-75624400D03*
X110665038Y-75624400D03*
%TD*%
D26*
%TO.C,REF\u002A\u002A*%
X94625000Y-117690000D03*
X93375000Y-117690000D03*
X92125000Y-117690000D03*
X90875000Y-117690000D03*
X89625000Y-117690000D03*
X88375000Y-117690000D03*
D27*
X96475000Y-121040000D03*
X86525000Y-121040000D03*
%TD*%
D18*
%TO.C,D11*%
X55471000Y-70875000D03*
X55471000Y-72475000D03*
%TD*%
D11*
%TO.C,REF\u002A\u002A*%
X66778600Y-66881200D03*
X68028600Y-66881200D03*
X69278600Y-66881200D03*
X70528600Y-66881200D03*
D12*
X64928600Y-63531200D03*
X72378600Y-63531200D03*
%TD*%
D21*
%TO.C,C21*%
X109482500Y-79090000D03*
X110617500Y-79090000D03*
%TD*%
D14*
%TO.C,R6*%
X118710926Y-67020900D03*
X120535926Y-67020900D03*
%TD*%
D29*
%TO.C,U7*%
X115122090Y-71352526D03*
X115122090Y-70352274D03*
D30*
X115365978Y-69452400D03*
X114865852Y-69452400D03*
X114365726Y-69452400D03*
X113865600Y-69452400D03*
D29*
X114109488Y-70852400D03*
D31*
X113715788Y-71352526D03*
D30*
X113865600Y-72252400D03*
X114365726Y-72252400D03*
X114865852Y-72252400D03*
X115365978Y-72252400D03*
%TD*%
D16*
%TO.C,*%
X69467900Y-106158800D03*
%TD*%
D19*
%TO.C,R15*%
X54948000Y-110835300D03*
X54948000Y-111970300D03*
%TD*%
D13*
%TO.C,R7*%
X120535926Y-65520900D03*
X118710926Y-65520900D03*
%TD*%
D32*
%TO.C,U14*%
X71105400Y-104593800D03*
D33*
X72040400Y-103908800D03*
X72040400Y-103408800D03*
X72040400Y-102908800D03*
X72040400Y-102408800D03*
X72040400Y-101908800D03*
X72040400Y-101408800D03*
D32*
X71105400Y-100723800D03*
X69605400Y-100723800D03*
D33*
X68670400Y-101408800D03*
X68670400Y-101908800D03*
X68670400Y-102408800D03*
X68670400Y-102908800D03*
X68670400Y-103408800D03*
X68670400Y-103908800D03*
D32*
X69605400Y-104593800D03*
%TD*%
D18*
%TO.C,D11*%
X52219800Y-72415850D03*
X52219800Y-70815850D03*
%TD*%
%TO.C,D11*%
X56624400Y-113443150D03*
X56624400Y-115043150D03*
%TD*%
D34*
%TO.C,C16*%
X111912500Y-94490000D03*
X113987500Y-94490000D03*
%TD*%
D15*
%TO.C,C39*%
X118000000Y-71977500D03*
X118000000Y-69902500D03*
%TD*%
D17*
%TO.C,R15*%
X55521800Y-75049100D03*
X55521800Y-73914100D03*
%TD*%
D13*
%TO.C,R4*%
X116852538Y-74124400D03*
X115027538Y-74124400D03*
%TD*%
D35*
%TO.C,R21*%
X110751283Y-91787667D03*
X109948717Y-92590233D03*
%TD*%
D23*
%TO.C,REF\u002A\u002A*%
X71035400Y-88269200D03*
X71035400Y-87019200D03*
X71035400Y-85769200D03*
X71035400Y-84519200D03*
D24*
X67685400Y-90119200D03*
X67685400Y-82669200D03*
%TD*%
D16*
%TO.C,*%
X67742900Y-106158800D03*
%TD*%
D18*
%TO.C,D11*%
X53347800Y-115009400D03*
X53347800Y-113409400D03*
%TD*%
%TO.C,D11*%
X58250000Y-113468550D03*
X58250000Y-115068550D03*
%TD*%
%TO.C,D11*%
X53845400Y-72441250D03*
X53845400Y-70841250D03*
%TD*%
D36*
%TO.C,U4*%
X112443698Y-91467100D03*
X113393699Y-91467100D03*
X114343700Y-91467100D03*
X114343700Y-88673100D03*
X113393699Y-88673100D03*
X112443698Y-88673100D03*
D37*
X113393699Y-90070100D03*
%TD*%
D38*
%TO.C,REF\u002A\u002A*%
X111122400Y-101342400D03*
X111122400Y-102592400D03*
X111122400Y-103842400D03*
X111122400Y-105092400D03*
X111122400Y-106342400D03*
X111122400Y-107592400D03*
X111122400Y-108842400D03*
X111122400Y-110092400D03*
X111122400Y-111342400D03*
D39*
X114472400Y-99492400D03*
X114472400Y-113192400D03*
%TD*%
D13*
%TO.C,*%
X117185926Y-67020900D03*
%TD*%
D40*
%TO.C,R15*%
X112087500Y-96690000D03*
X113812500Y-96690000D03*
%TD*%
D15*
%TO.C,C45*%
X111343926Y-67311900D03*
X111343926Y-65236900D03*
%TD*%
M02*
