%TF.GenerationSoftware,KiCad,Pcbnew,9.0.2*%
%TF.CreationDate,2026-04-27T20:09:48-04:00*%
%TF.ProjectId,Final_GSPCB,46696e61-6c5f-4475-9350-43422e6b6963,rev?*%
%TF.SameCoordinates,Original*%
%TF.FileFunction,Soldermask,Bot*%
%TF.FilePolarity,Negative*%
%FSLAX46Y46*%
G04 Gerber Fmt 4.6, Leading zero omitted, Abs format (unit mm)*
G04 Created by KiCad (PCBNEW 9.0.2) date 2026-04-27 20:09:48*
%MOMM*%
%LPD*%
G01*
G04 APERTURE LIST*
G04 Aperture macros list*
%AMRoundRect*
0 Rectangle with rounded corners*
0 $1 Rounding radius*
0 $2 $3 $4 $5 $6 $7 $8 $9 X,Y pos of 4 corners*
0 Add a 4 corners polygon primitive as box body*
4,1,4,$2,$3,$4,$5,$6,$7,$8,$9,$2,$3,0*
0 Add four circle primitives for the rounded corners*
1,1,$1+$1,$2,$3*
1,1,$1+$1,$4,$5*
1,1,$1+$1,$6,$7*
1,1,$1+$1,$8,$9*
0 Add four rect primitives between the rounded corners*
20,1,$1+$1,$2,$3,$4,$5,0*
20,1,$1+$1,$4,$5,$6,$7,0*
20,1,$1+$1,$6,$7,$8,$9,0*
20,1,$1+$1,$8,$9,$2,$3,0*%
G04 Aperture macros list end*
%ADD10R,1.700000X1.700000*%
%ADD11C,1.700000*%
%ADD12C,2.200000*%
%ADD13RoundRect,0.250001X-0.949999X0.949999X-0.949999X-0.949999X0.949999X-0.949999X0.949999X0.949999X0*%
%ADD14C,2.400000*%
%ADD15RoundRect,0.250002X-1.699998X1.699998X-1.699998X-1.699998X1.699998X-1.699998X1.699998X1.699998X0*%
%ADD16C,3.900000*%
G04 APERTURE END LIST*
D10*
%TO.C,REF\u002A\u002A*%
X100976100Y-64771200D03*
D11*
X100976100Y-67311200D03*
X100976100Y-69851200D03*
X100976100Y-72391200D03*
X100976100Y-74931200D03*
X100976100Y-77471200D03*
X100976100Y-80011200D03*
X100976100Y-82551200D03*
X100976100Y-85091200D03*
X100976100Y-87631200D03*
X100976100Y-90171200D03*
X100976100Y-92711200D03*
X100976100Y-95251200D03*
X100976100Y-97791200D03*
X100976100Y-100331200D03*
X100976100Y-102871200D03*
X100976100Y-105411200D03*
X100976100Y-107951200D03*
X100976100Y-110491200D03*
X100976100Y-113031200D03*
%TD*%
D12*
%TO.C,H2*%
X50050000Y-61090000D03*
%TD*%
D13*
%TO.C,REF\u002A\u002A*%
X57503000Y-79597400D03*
D14*
X57503000Y-83097400D03*
X57503000Y-86597400D03*
X57503000Y-90097400D03*
%TD*%
D12*
%TO.C,H2*%
X120050000Y-120890000D03*
%TD*%
D10*
%TO.C,REF\u002A\u002A*%
X83196100Y-64771200D03*
D11*
X83196100Y-67311200D03*
X83196100Y-69851200D03*
X83196100Y-72391200D03*
X83196100Y-74931200D03*
X83196100Y-77471200D03*
X83196100Y-80011200D03*
X83196100Y-82551200D03*
X83196100Y-85091200D03*
X83196100Y-87631200D03*
X83196100Y-90171200D03*
X83196100Y-92711200D03*
X83196100Y-95251200D03*
X83196100Y-97791200D03*
X83196100Y-100331200D03*
X83196100Y-102871200D03*
X83196100Y-105411200D03*
X83196100Y-107951200D03*
X83196100Y-110491200D03*
X83196100Y-113031200D03*
%TD*%
D12*
%TO.C,H2*%
X120050000Y-61090000D03*
%TD*%
D13*
%TO.C,REF\u002A\u002A*%
X57500000Y-94940000D03*
D14*
X57500000Y-98440000D03*
X57500000Y-101940000D03*
X57500000Y-105440000D03*
%TD*%
D12*
%TO.C,H2*%
X50050000Y-120890000D03*
%TD*%
D15*
%TO.C,J2*%
X119580600Y-81097200D03*
D16*
X119580600Y-88897200D03*
%TD*%
M02*
